<svg width="440" height="440" viewBox="0 0 440 440" fill="none" xmlns="http://www.w3.org/2000/svg">
<path d="M33.8417 430.841H2.09766V349.723H33.8417C56.7927 349.723 70.2679 366.41 70.2679 390.289C70.2679 414.169 56.7927 430.855 33.8417 430.855V430.841ZM15.5589 361.14V419.41H31.7793C46.9685 419.41 56.4443 409.011 56.4443 390.275C56.4443 371.54 46.9685 361.14 31.7793 361.14H15.5589Z" fill="white"/>
<path d="M127.303 430.841H116.002V424.331C112.351 429.698 105.718 432.667 97.0364 432.667C85.1637 432.667 76.4822 427.411 76.4822 416.44C76.4822 410.39 78.7675 405.929 83.2267 403.072C87.7974 400.102 94.0822 397.816 102.178 396.325L115.319 393.927V391.878C115.319 385.591 110.748 382.05 103.446 382.05C96.1445 382.05 91.9083 384.671 85.0522 391.529L77.165 384.211C84.3555 375.637 92.4657 371.636 103.084 371.636C118.622 371.636 127.303 379.401 127.303 391.627V430.841ZM115.319 403.072L105.383 405.135C93.9567 407.533 88.8286 409.819 88.8286 415.757C88.8286 419.981 92.5911 422.616 98.8758 422.616C108.129 422.616 115.319 417.472 115.319 408.341V403.072Z" fill="white"/>
<path d="M171.963 429.921C167.74 431.413 163.629 432.096 159.63 432.096C148.552 432.096 143.981 427.064 143.981 416.678V382.971H133.585V373.491H143.981V354.979H156.55V373.491H171.057V382.971H156.55V415.186C156.55 419.647 158.487 421.237 162.724 421.237C164.786 421.237 167.294 420.777 170.374 419.982L171.976 429.921H171.963Z" fill="white"/>
<path d="M230.077 430.841H218.775V424.331C215.124 429.698 208.491 432.667 199.81 432.667C187.937 432.667 179.256 427.411 179.256 416.44C179.256 410.39 181.541 405.929 186 403.072C190.571 400.102 196.856 397.816 204.952 396.325L218.093 393.927V391.878C218.093 385.591 213.522 382.05 206.22 382.05C198.918 382.05 194.682 384.671 187.826 391.529L179.938 384.211C187.129 375.637 195.239 371.636 205.858 371.636C221.395 371.636 230.077 379.401 230.077 391.627V430.841ZM218.079 403.072L208.143 405.135C196.716 407.533 191.588 409.819 191.588 415.757C191.588 419.981 195.35 422.616 201.635 422.616C210.888 422.616 218.079 417.472 218.079 408.341V403.072Z" fill="white"/>
<path d="M308.848 430.841H295.262V394.164H255.742V430.841H242.267V349.723H255.742V382.747H295.262V349.723H308.848V430.841Z" fill="white"/>
<path d="M370.167 373.49V430.84H358.628V424.219C355.437 429.363 349.487 432.555 341.614 432.555C327.79 432.555 321.171 425.236 321.171 414.154V373.476H333.74V410.725C333.74 417.695 337.391 421.696 344.359 421.696C352.246 421.696 357.611 416.9 357.611 408.215V373.476H370.181L370.167 373.49Z" fill="white"/>
<path d="M412.944 432.319C404.374 432.319 398.089 429.126 394.104 422.839V430.841H382.454V349.723H395.023V380.335C399.134 374.731 405.182 371.888 413.069 371.888C427.799 371.888 438.431 384.002 438.431 402.166C438.431 420.33 427.576 432.333 412.958 432.333L412.944 432.319ZM410.436 382.622C400.96 382.622 394.452 390.163 394.452 402.166C394.452 414.168 401.197 421.473 410.436 421.473C419.674 421.473 425.625 413.931 425.625 402.166C425.625 390.4 419.688 382.622 410.436 382.622Z" fill="white"/>
<path d="M273.893 59.4814C258.245 50.4574 240.451 45.6978 222.41 45.6978C204.973 45.6978 187.235 50.1547 171.091 59.4814C154.617 68.9732 141.746 82.4267 133.001 97.8886C124.255 113.35 119.662 130.876 119.662 148.649C119.662 166.092 124.117 183.837 133.441 199.987C142.929 216.439 156.377 229.342 171.833 238.091C187.29 246.84 204.781 251.435 222.575 251.435C240.011 251.435 257.75 246.978 273.893 237.651C279.366 234.487 281.237 227.499 278.074 222.052C274.911 216.577 267.926 214.706 262.48 217.87C249.857 225.16 236.133 228.599 222.575 228.599C208.769 228.599 195.1 224.995 183.082 218.2C171.063 211.404 160.668 201.445 153.242 188.569C145.954 175.941 142.516 162.24 142.516 148.649C142.516 134.838 146.119 121.164 152.912 109.141C159.705 97.1182 169.661 86.7186 182.532 79.2903C195.155 71.9995 208.851 68.5605 222.437 68.5605C236.491 68.5605 250.352 72.2746 262.535 79.2903C268.008 82.4542 274.994 80.5558 278.129 75.0809C281.264 69.6059 279.394 62.6178 273.921 59.4814H273.893Z" fill="#EC9E32"/>
<path d="M222.493 205.709C238.225 205.709 252.581 199.299 262.894 188.982C273.207 178.665 279.643 164.331 279.615 148.566C279.615 132.829 273.207 118.468 262.894 108.151C252.581 97.8338 238.252 91.3959 222.493 91.4234C216.195 91.4234 211.08 96.5407 211.08 102.841C211.08 109.141 216.195 114.259 222.493 114.259C231.982 114.259 240.48 118.083 246.723 124.301C252.938 130.546 256.761 139.047 256.761 148.539C256.761 158.031 252.938 166.532 246.723 172.777C240.48 178.995 231.982 182.819 222.493 182.819C216.195 182.819 211.08 187.937 211.08 194.237C211.08 200.537 216.195 205.654 222.493 205.654V205.709Z" fill="#D23500"/>
<path d="M147.192 276.636C125.108 263.623 106.709 245.08 93.8656 222.877V222.85C90.7029 217.375 92.5455 210.386 98.0184 207.223C103.491 204.059 110.477 205.902 113.64 211.377C124.503 230.168 140.124 245.905 158.798 256.91C177.472 267.915 199.198 274.243 222.493 274.243C257.228 274.243 288.58 260.211 311.352 237.431C334.096 214.651 348.149 183.287 348.149 148.539C348.149 113.791 334.096 82.4268 311.352 59.6467C288.58 36.894 257.228 22.8352 222.493 22.8352C216.195 22.8352 211.079 17.7179 211.079 11.4176C211.079 5.11729 216.195 0 222.493 0C263.471 0 300.653 16.6449 327.495 43.5244C354.365 70.3764 371.004 107.573 371.004 148.566C371.004 189.532 354.365 226.756 327.495 253.608C300.653 280.488 263.471 297.133 222.493 297.133C195.046 297.133 169.276 289.649 147.192 276.636Z" fill="#006DCD"/>
</svg>
