<svg width="488" height="120" viewBox="0 0 488 120" fill="none" xmlns="http://www.w3.org/2000/svg">
<path d="M165.651 92.2776H140.359V27.6221H165.651C183.937 27.6221 194.673 40.9221 194.673 59.9554C194.673 78.9887 183.937 92.2887 165.651 92.2887V92.2776ZM151.084 36.7221V83.1665H164.008C176.109 83.1665 183.659 74.8776 183.659 59.9443C183.659 45.011 176.109 36.7221 164.008 36.7221H151.084Z" fill="black"/>
<path d="M240.116 92.2778H231.112V87.0889C228.203 91.3666 222.918 93.7333 216.001 93.7333C206.542 93.7333 199.625 89.5444 199.625 80.8C199.625 75.9778 201.446 72.4222 204.999 70.1444C208.64 67.7778 213.647 65.9555 220.098 64.7666L230.568 62.8555V61.2222C230.568 56.2111 226.926 53.3889 221.108 53.3889C215.291 53.3889 211.915 55.4778 206.453 60.9444L200.169 55.1111C205.898 48.2778 212.36 45.0889 220.82 45.0889C233.199 45.0889 240.116 51.2778 240.116 61.0222V92.2555V92.2778ZM230.568 70.1444L222.652 71.7889C213.548 73.7 209.462 75.5222 209.462 80.2555C209.462 83.6222 212.459 85.7222 217.467 85.7222C224.839 85.7222 230.568 81.6222 230.568 74.3444V70.1555V70.1444Z" fill="black"/>
<path d="M275.699 91.5444C272.335 92.7333 269.06 93.2777 265.874 93.2777C257.047 93.2777 253.406 89.2666 253.406 80.9888V54.1221H245.123V46.5666H253.406V31.811H263.42V46.5666H274.978V54.1221H263.42V79.7999C263.42 83.3555 264.963 84.6222 268.338 84.6222C269.982 84.6222 271.98 84.2555 274.434 83.6222L275.71 91.5444H275.699Z" fill="black"/>
<path d="M321.997 92.2778H312.993V87.0889C310.084 91.3666 304.799 93.7333 297.882 93.7333C288.423 93.7333 281.506 89.5444 281.506 80.8C281.506 75.9778 283.327 72.4222 286.879 70.1444C290.521 67.7778 295.528 65.9555 301.979 64.7666L312.449 62.8555V61.2222C312.449 56.2111 308.807 53.3889 302.989 53.3889C297.171 53.3889 293.796 55.4778 288.334 60.9444L282.05 55.1111C287.779 48.2778 294.24 45.0889 302.701 45.0889C315.08 45.0889 321.997 51.2778 321.997 61.0222V92.2555V92.2778ZM312.437 70.1444L304.521 71.7889C295.417 73.7 291.332 75.5222 291.332 80.2555C291.332 83.6222 294.329 85.7222 299.336 85.7222C306.708 85.7222 312.437 81.6222 312.437 74.3444V70.1555V70.1444Z" fill="black"/>
<path d="M384.759 92.2776H373.934V63.0443H342.447V92.2776H331.711V27.6221H342.447V53.9443H373.934V27.6221H384.759V92.2776Z" fill="black"/>
<path d="M433.611 46.5668V92.2779H424.418V87.0001C421.875 91.1001 417.134 93.6446 410.862 93.6446C399.848 93.6446 394.574 87.8112 394.574 78.9779V46.5557H404.589V76.2446C404.589 81.8001 407.497 84.989 413.049 84.989C419.333 84.989 423.607 81.1668 423.607 74.2446V46.5557H433.622L433.611 46.5668Z" fill="black"/>
<path d="M467.695 93.4554C460.867 93.4554 455.859 90.911 452.684 85.8998V92.2776H443.402V27.6221H453.417V52.0221C456.692 47.5554 461.511 45.2887 467.795 45.2887C479.53 45.2887 488.001 54.9443 488.001 69.4221C488.001 83.8998 479.352 93.4665 467.706 93.4665L467.695 93.4554ZM465.696 53.8443C458.146 53.8443 452.962 59.8554 452.962 69.4221C452.962 78.9887 458.335 84.811 465.696 84.811C473.057 84.811 477.798 78.7998 477.798 69.4221C477.798 60.0443 473.068 53.8443 465.696 53.8443Z" fill="black"/>
<path d="M0.623826 90.0111C5.80869 98.9778 13.2363 106.467 22.1516 111.722C31.0668 116.978 41.4699 120 52.5502 120C69.0929 120 84.1034 113.278 94.9395 102.422C105.787 91.5778 112.504 76.5444 112.504 60C112.504 43.4444 105.787 28.4222 94.9395 17.5778C84.1034 6.72222 69.0929 0 52.5502 0C50.0077 0 47.9426 2.06667 47.9426 4.61111C47.9426 7.15556 50.0077 9.22222 52.5502 9.22222C66.5726 9.22222 79.2294 14.9 88.4223 24.0889C97.6041 33.2889 103.277 45.9556 103.277 59.9889C103.277 74.0222 97.6041 86.6889 88.4223 95.8889C79.2294 105.089 66.5726 110.756 52.5502 110.756C43.1464 110.756 34.3754 108.2 26.8368 103.756C19.2982 99.3111 12.992 92.9556 8.60651 85.3667C7.32973 83.1556 4.5097 82.4111 2.3003 83.6889C0.0909062 84.9667 -0.65296 87.7889 0.623826 90V90.0111Z" fill="black"/>
<path d="M73.3248 24.0222C67.0026 20.3778 59.8137 18.4556 52.5248 18.4556C45.4803 18.4556 38.3137 20.2556 31.7914 24.0222C25.1359 27.8556 19.9359 33.2889 16.4026 39.5333C12.8692 45.7778 11.0137 52.8556 11.0137 60.0333C11.0137 67.0778 12.8137 74.2445 16.5803 80.7667C20.4137 87.4111 25.847 92.6222 32.0914 96.1556C38.3359 99.6889 45.4026 101.544 52.5914 101.544C59.6359 101.544 66.8026 99.7444 73.3248 95.9778C75.5359 94.7 76.2914 91.8778 75.0137 89.6778C73.7359 87.4667 70.9137 86.7111 68.7137 87.9889C63.6137 90.9333 58.0692 92.3222 52.5914 92.3222C47.0137 92.3222 41.4914 90.8667 36.6359 88.1222C31.7803 85.3778 27.5803 81.3556 24.5803 76.1556C21.6359 71.0556 20.247 65.5222 20.247 60.0333C20.247 54.4556 21.7026 48.9333 24.447 44.0778C27.1914 39.2222 31.2137 35.0222 36.4137 32.0222C41.5137 29.0778 47.047 27.6889 52.5359 27.6889C58.2137 27.6889 63.8137 29.1889 68.7359 32.0222C70.947 33.3 73.7692 32.5333 75.0359 30.3222C76.3026 28.1111 75.5359 25.2889 73.3248 24.0222Z" fill="black"/>
<path d="M52.5447 83.078C58.9003 83.078 64.7003 80.4891 68.8669 76.3224C73.0336 72.1557 75.6336 66.3668 75.6225 60.0002C75.6225 53.6446 73.0336 47.8446 68.8669 43.678C64.7003 39.5113 58.9114 36.9113 52.5447 36.9224C50.0003 36.9224 47.9336 38.9891 47.9336 41.5335C47.9336 44.078 50.0003 46.1446 52.5447 46.1446C56.378 46.1446 59.8114 47.6891 62.3336 50.2002C64.8447 52.7224 66.3892 56.1557 66.3892 59.9891C66.3892 63.8224 64.8447 67.2557 62.3336 69.778C59.8114 72.2891 56.378 73.8335 52.5447 73.8335C50.0003 73.8335 47.9336 75.9002 47.9336 78.4446C47.9336 80.9891 50.0003 83.078 52.5447 83.078Z" fill="black"/>
</svg>
